<svg width="104" height="29" viewBox="0 0 104 29" fill="none" xmlns="http://www.w3.org/2000/svg">
<path d="M17.5886 11.5605V0.179932H21.0501V28.0354H17.5886V24.6108C15.89 27.2363 13.3832 28.5495 10.0682 28.5504C7.25643 28.5504 4.88206 27.5422 2.94513 25.5258C0.981709 23.4857 0 21.0045 0 18.0822C0 15.191 0.981709 12.7253 2.94513 10.6851C4.90855 8.64501 7.28291 7.62403 10.0682 7.6222C13.3832 7.6222 15.89 8.93495 17.5886 11.5605ZM10.5052 25.2053C12.5216 25.2053 14.206 24.5291 15.5585 23.1766C16.9119 21.7739 17.5886 20.0758 17.5886 18.0822C17.5886 16.0658 16.9119 14.3809 15.5585 13.0275C14.2069 11.6531 12.5225 10.9637 10.5052 10.9591C8.51621 10.9591 6.84503 11.6486 5.49164 13.0275C4.13825 14.3882 3.46155 16.0731 3.46155 18.0822C3.46155 20.0712 4.13825 21.7689 5.49164 23.1752C6.84411 24.5286 8.5153 25.2053 10.5052 25.2053Z" fill="#282D6C"/>
<path d="M72.3405 7.62207C74.5934 7.62207 76.4039 8.35265 77.7719 9.81379C79.1399 11.2749 79.8248 13.2251 79.8266 15.6643V28.0393H76.3596V15.7794C76.3596 14.2671 75.9683 13.0799 75.1857 12.2178C74.403 11.3558 73.335 10.9247 71.9816 10.9247C70.4429 10.9247 69.2424 11.4352 68.3804 12.4562C67.5183 13.4772 67.0872 14.984 67.0872 16.9766V28.0393H63.6257V15.7794C63.6257 14.2671 63.2476 13.0799 62.4915 12.2178C61.7353 11.3558 60.7075 10.9247 59.408 10.9247C57.8957 10.9247 56.6683 11.4485 55.7259 12.4959C54.7835 13.5434 54.3127 15.0356 54.3136 16.9725V28.0352H50.8521V8.1385H54.3136V10.8055C55.667 8.68232 57.6437 7.62116 60.2436 7.62207C62.9211 7.62207 64.8709 8.74944 66.0927 11.0042C67.4726 8.74944 69.5552 7.62207 72.3405 7.62207Z" fill="#282D6C"/>
<path d="M98.3893 25.5283C96.3729 27.5447 93.8926 28.5529 90.9484 28.5529C88.0042 28.5529 85.5234 27.5447 83.5061 25.5283C81.4897 23.5119 80.482 21.0298 80.4829 18.0819C80.4838 15.1341 81.4916 12.6533 83.5061 10.6397C85.5225 8.6251 88.0033 7.61737 90.9484 7.61646C93.8935 7.61554 96.3738 8.62328 98.3893 10.6397C100.432 12.6834 101.454 15.1642 101.454 18.0819C101.454 20.9997 100.432 23.4818 98.3893 25.5283ZM90.9484 25.1694C92.9374 25.1694 94.6086 24.4932 95.962 23.1407C97.3153 21.7882 97.9916 20.102 97.9907 18.0819C97.9907 16.0655 97.3144 14.3807 95.962 13.0273C94.6095 11.6739 92.9383 10.9976 90.9484 10.9986C88.9841 10.9986 87.3257 11.6748 85.9732 13.0273C84.6207 14.3797 83.9445 16.0646 83.9445 18.0819C83.9445 20.0983 84.6207 21.7828 85.9732 23.1352C87.3257 24.4877 88.9841 25.1658 90.9484 25.1694Z" fill="#282D6C"/>
<path d="M46.0495 24.4269C43.2989 27.1775 39.9154 28.5528 35.8991 28.5528C31.8827 28.5528 28.5006 27.1775 25.7527 24.4269C23.0021 21.6781 21.6268 18.2946 21.6268 14.2765C21.6268 10.2583 23.0021 6.87483 25.7527 4.12604C28.4997 1.37543 31.8818 0.00012207 35.8991 0.00012207C39.9163 0.00012207 43.2998 1.37543 46.0495 4.12604C48.8357 6.91227 50.2288 10.2957 50.2288 14.2765C50.2288 18.2572 48.8357 21.6407 46.0495 24.4269ZM35.8991 23.9379C38.6122 23.9379 40.8921 23.015 42.7386 21.1694C44.5851 19.3238 45.5079 17.0262 45.507 14.2765C45.507 11.5258 44.5842 9.22773 42.7386 7.38212C40.893 5.53651 38.6131 4.6137 35.8991 4.6137C33.2197 4.6137 30.9576 5.53651 29.1129 7.38212C27.2682 9.22773 26.3454 11.5258 26.3445 14.2765C26.3445 17.0271 27.2673 19.3247 29.1129 21.1694C30.9585 23.0141 33.2206 23.9369 35.8991 23.9379Z" fill="#096DD9"/>
<path d="M28.7224 17.6028C28.6748 17.4885 28.6501 17.3659 28.6499 17.2421C28.6497 17.1182 28.6738 16.9956 28.721 16.8811C28.7682 16.7666 28.8375 16.6625 28.925 16.5748C29.0124 16.4871 29.1163 16.4175 29.2306 16.37C29.3441 16.3238 29.4656 16.3005 29.5882 16.3015C29.7739 16.3018 29.9554 16.3571 30.1098 16.4604C30.2641 16.5638 30.3843 16.7106 30.4553 16.8823C31.3251 18.9726 33.4785 20.326 35.9428 20.326C38.3496 20.326 40.4906 18.9726 41.3974 16.8796C41.4445 16.7638 41.5143 16.6586 41.6026 16.5702C41.6909 16.4817 41.7959 16.4118 41.9116 16.3645C42.0273 16.3173 42.1512 16.2936 42.2762 16.2948C42.4012 16.2961 42.5246 16.3224 42.6393 16.372C42.754 16.4216 42.8576 16.4937 42.9441 16.5839C43.0305 16.6741 43.0981 16.7807 43.1428 16.8974C43.1875 17.0141 43.2085 17.1385 43.2045 17.2634C43.2004 17.3883 43.1715 17.5112 43.1193 17.6247C41.9166 20.411 39.1016 22.2068 35.9455 22.2068C32.721 22.2068 29.8854 20.4 28.7224 17.6028Z" fill="#096DD9"/>
<path d="M102.726 28.5528C103.43 28.5528 104 27.9825 104 27.2789C104 26.5753 103.43 26.0049 102.726 26.0049C102.023 26.0049 101.452 26.5753 101.452 27.2789C101.452 27.9825 102.023 28.5528 102.726 28.5528Z" fill="#282D6C"/>
</svg>
